# Blender 3.3.21
# www.blender.org
mtllib brewno.mtl
o Cylinder
v -0.205655 0.069075 0.159696
v -0.389630 6.740782 0.324289
v -0.307730 0.063272 -0.132908
v -0.502691 6.816084 0.026925
v -0.197626 -0.049403 -0.392830
v -0.369563 6.704504 -0.217091
v 0.069909 0.223593 -0.411167
v -0.107173 6.834179 -0.281998
v 0.346637 -0.037678 -0.272577
v 0.161834 6.837171 -0.106485
v 0.431564 0.106779 0.031345
v 0.248285 6.616368 0.187004
v 0.312662 0.134821 0.271669
v 0.132694 6.547873 0.417109
v 0.052692 0.096536 0.326541
v -0.125240 6.709136 0.491300
v -0.236677 1.435972 0.188510
v -0.236913 2.740929 0.225511
v -0.301529 4.017460 0.247536
v -0.334297 5.282323 0.277187
v -0.465730 5.441114 -0.006293
v -0.428770 4.066145 -0.039512
v -0.314960 2.718411 -0.047790
v -0.354849 1.316205 -0.105948
v -0.317568 5.277602 -0.233736
v -0.308508 4.075506 -0.293175
v -0.194181 2.718833 -0.312423
v -0.228511 1.387451 -0.348000
v -0.069137 5.411966 -0.306774
v -0.033252 4.084240 -0.348435
v 0.060181 2.718404 -0.376611
v 0.039994 1.356260 -0.410165
v 0.192880 5.409303 -0.134910
v 0.235755 4.087231 -0.172922
v 0.347423 2.769235 -0.175006
v 0.295429 1.427859 -0.227395
v 0.303974 5.457696 0.163770
v 0.340934 4.082726 0.130551
v 0.428238 2.747725 0.140685
v 0.414855 1.332787 0.064115
v 0.168792 5.306251 0.390523
v 0.202063 4.027095 0.358224
v 0.378019 2.740777 0.374908
v 0.294593 1.323426 0.317777
v -0.089521 5.379764 0.459637
v -0.054583 4.064631 0.439474
v 0.072764 2.744313 0.408006
v 0.019338 1.314692 0.373038
v -0.253840 0.106845 0.013946
v -0.434783 6.693164 0.173721
v -0.351009 5.913626 0.292249
v -0.320927 0.769168 -0.114430
v -0.237486 0.251895 -0.239251
v -0.442560 6.820765 -0.099906
v -0.202924 0.832687 -0.347448
v -0.058463 0.107716 -0.400347
v -0.242709 6.797814 -0.251556
v 0.053009 0.852939 -0.396867
v 0.201286 0.121213 -0.341933
v 0.025998 6.749347 -0.188208
v 0.319686 0.717338 -0.248828
v 0.376356 0.149038 -0.112085
v 0.198084 6.604564 0.044992
v 0.433336 0.645302 0.047505
v 0.370316 0.133251 0.151761
v 0.186494 6.531797 0.298965
v 0.313073 0.635941 0.301168
v 0.188538 0.030806 0.305518
v 0.009123 6.818938 0.478281
v 0.037818 0.627207 0.356429
v -0.078205 -0.061773 0.252063
v -0.263008 6.813075 0.418155
v -0.215330 0.842306 0.170203
v -0.209088 2.039590 0.218249
v -0.284695 3.380648 0.253070
v -0.325750 4.682985 0.268273
v -0.449602 5.927831 0.012662
v -0.447250 4.753630 -0.022903
v -0.377908 3.387167 -0.049237
v -0.295274 2.138354 -0.066877
v -0.363948 6.137960 -0.243347
v -0.326988 4.762991 -0.276565
v -0.273946 3.391721 -0.307006
v -0.230070 2.016654 -0.341090
v -0.088693 6.146694 -0.298607
v -0.051733 4.771725 -0.331826
v 0.032181 3.407892 -0.356526
v 0.057746 2.030932 -0.390942
v 0.180314 6.149685 -0.123094
v 0.217275 4.774716 -0.156313
v 0.320567 3.420711 -0.168028
v 0.287721 2.128391 -0.192273
v 0.272377 6.031790 0.174506
v 0.322454 4.770212 0.147160
v 0.398467 3.404615 0.121162
v 0.412448 2.026707 0.086842
v 0.165231 6.135820 0.434042
v 0.202192 4.760850 0.400823
v 0.312126 3.416660 0.397290
v 0.362748 2.034161 0.353401
v -0.110024 6.127086 0.489302
v -0.073064 4.752116 0.456084
v -0.020517 3.382877 0.428176
v 0.037137 2.020365 0.407930
v 0.156966 1.319059 0.345408
v 0.263150 2.782081 0.373218
v 0.081760 4.061779 0.407431
v 0.046084 5.443968 0.445063
v -0.115166 1.313196 0.285281
v -0.132197 2.698825 0.329358
v -0.189087 4.063136 0.351718
v -0.210168 5.282320 0.357843
v 0.354724 1.328107 0.190946
v 0.530676 2.790150 0.307442
v 0.269032 4.054358 0.249064
v 0.243843 5.453016 0.290601
v 0.362266 1.335039 -0.087622
v 0.347925 2.796326 -0.026314
v 0.263135 4.034910 -0.016141
v 0.228128 5.291773 0.014511
v 0.175173 1.335796 -0.327115
v 0.165199 2.737818 -0.263786
v 0.099072 4.074966 -0.255452
v 0.057993 5.319407 -0.208438
v -0.091394 1.494321 -0.354205
v -0.043609 2.725575 -0.338554
v -0.170880 4.079873 -0.320805
v -0.197717 5.344721 -0.269393
v -0.276891 1.462338 -0.214672
v -0.261569 2.733169 -0.176351
v -0.368639 4.070826 -0.166343
v -0.405599 5.445795 -0.133125
v -0.294939 1.370646 0.045674
v -0.290027 2.701565 0.089120
v -0.376180 4.063893 0.112225
v -0.404329 5.394038 0.143084
v -0.394661 4.751378 0.128834
v -0.343143 3.383090 0.102199
v -0.264031 2.117103 0.070274
v -0.283779 0.626468 0.029179
v -0.381383 4.737811 -0.146708
v -0.309080 3.395098 -0.173041
v -0.287312 2.046806 -0.205324
v -0.276237 0.633401 -0.249389
v -0.189360 4.767358 -0.304196
v -0.148678 3.396604 -0.332669
v -0.095696 2.134679 -0.328286
v -0.074076 0.873515 -0.367372
v 0.077725 4.711728 -0.230667
v 0.186394 3.409765 -0.270441
v 0.159353 2.032933 -0.299009
v 0.180133 0.822572 -0.319878
v 0.261274 4.734283 -0.003234
v 0.317915 3.413755 -0.019625
v 0.425520 2.051149 -0.044905
v 0.380746 0.647555 -0.104231
v 0.262323 4.765531 0.273992
v 0.299635 3.413727 0.253049
v 0.378381 2.036728 0.228804
v 0.337662 0.892715 0.162469
v -0.198640 4.687752 0.352366
v -0.139762 3.382017 0.339544
v -0.068676 2.016454 0.314119
v -0.096686 0.625712 0.268672
v 0.064564 4.756484 0.428453
v 0.093177 3.395276 0.389312
v 0.188265 2.023167 0.376927
v 0.165299 0.775094 0.314234
v 0.027604 6.131453 0.461672
v -0.236622 6.029828 0.388594
v 0.221931 6.103772 0.303564
v 0.232904 6.147433 0.028642
v 0.040662 5.952239 -0.192437
v -0.222160 6.087022 -0.264528
v -0.411290 6.047762 -0.111456
v -0.431621 6.126347 0.162052
v 0.202192 4.760850 0.400823
v 0.202063 4.027095 0.358224
v 0.269032 4.054358 0.249064
v 0.262323 4.765531 0.273992
vn -0.9567 -0.0421 0.2882
vn -0.9009 -0.0126 -0.4339
vn -0.2379 0.0139 -0.9712
vn 0.4625 0.0228 -0.8863
vn 0.9590 0.0619 -0.2764
vn 0.9165 0.0842 0.3910
vn 0.1829 0.9779 0.1011
vn -0.5919 -0.0547 0.8041
vn 0.1521 -0.0104 0.9883
vn 0.0390 -0.9959 -0.0811
vn 0.2714 -0.0314 0.9620
vn 0.1905 -0.0118 0.9816
vn 0.2732 -0.0118 0.9619
vn 0.1553 -0.0110 0.9878
vn -0.6645 -0.0410 0.7461
vn -0.6394 -0.0547 0.7669
vn -0.5909 -0.0337 0.8060
vn -0.5480 -0.0193 0.8363
vn 0.9556 -0.0106 0.2944
vn 0.7629 -0.1310 0.6331
vn 0.9687 0.1165 0.2194
vn 0.8486 0.0330 0.5280
vn 0.9445 0.0333 -0.3269
vn 0.9769 0.0514 -0.2073
vn 0.8685 0.0799 -0.4892
vn 0.8953 0.0493 -0.4427
vn 0.5499 0.0228 -0.8349
vn 0.5306 0.0072 -0.8476
vn 0.5576 0.0783 -0.8264
vn 0.4533 0.0474 -0.8901
vn -0.3187 -0.0087 -0.9478
vn -0.3577 0.0182 -0.9337
vn -0.1598 0.0042 -0.9871
vn -0.2478 0.0423 -0.9679
vn -0.8839 -0.0052 -0.4677
vn -0.9039 0.0577 -0.4239
vn -0.9375 -0.0597 -0.3428
vn -0.8466 0.0143 -0.5321
vn -0.9527 -0.0391 0.3015
vn -0.9799 -0.0448 0.1946
vn -0.9593 -0.0632 0.2751
vn -0.9364 -0.0279 0.3499
vn -0.9445 -0.0333 0.3269
vn -0.8924 -0.0406 0.4494
vn -0.8970 -0.0214 0.4415
vn -0.9769 -0.0857 0.1960
vn -0.9254 -0.0820 0.3699
vn -0.9085 -0.0358 0.4164
vn -0.9541 0.0430 0.2962
vn -0.9312 0.0257 0.3636
vn -0.9358 -0.0463 0.3494
vn -0.9574 -0.0416 0.2859
vn -0.9177 -0.0360 0.3956
vn -0.9000 -0.0332 0.4346
vn -0.9127 -0.0101 -0.4084
vn -0.8936 -0.0086 -0.4488
vn -0.8936 -0.0176 -0.4485
vn -0.9332 -0.0867 -0.3486
vn -0.8949 -0.0737 -0.4400
vn -0.8859 -0.0666 -0.4592
vn -0.9314 -0.0043 -0.3639
vn -0.9466 0.0441 -0.3193
vn -0.9737 0.0133 -0.2276
vn -0.9149 -0.0207 -0.4031
vn -0.8987 -0.0396 -0.4367
vn -0.8931 -0.0083 -0.4498
vn -0.1974 0.0184 -0.9802
vn -0.2561 0.0688 -0.9642
vn -0.2125 -0.0021 -0.9772
vn -0.1838 -0.0170 -0.9828
vn -0.1990 0.0102 -0.9799
vn -0.3582 0.0357 -0.9330
vn 0.0029 0.0259 -0.9997
vn -0.0545 0.0179 -0.9984
vn -0.1666 0.0295 -0.9856
vn -0.1348 0.0454 -0.9898
vn -0.1016 0.0070 -0.9948
vn 0.4848 0.0419 -0.8736
vn 0.6025 0.0430 -0.7970
vn 0.6308 0.0481 -0.7745
vn 0.5170 0.0024 -0.8560
vn 0.6082 0.0109 -0.7937
vn 0.5299 0.0749 -0.8448
vn 0.6175 0.0459 -0.7853
vn 0.5955 0.0269 -0.8029
vn 0.7026 0.0211 -0.7112
vn 0.4737 0.0433 -0.8796
vn 0.5067 0.0380 -0.8613
vn 0.5197 -0.0081 -0.8543
vn 0.9031 0.0224 -0.4288
vn 0.9755 0.0190 -0.2190
vn 0.9725 0.0544 -0.2264
vn 0.8885 0.0371 -0.4574
vn 0.9990 0.0447 0.0042
vn 0.9924 0.1075 -0.0595
vn 0.9893 -0.0361 -0.1413
vn 0.8143 -0.0000 -0.5804
vn 0.9073 0.0226 -0.4200
vn 0.9394 0.0024 -0.3427
vn 0.9556 0.0246 -0.2938
vn 0.9194 0.0388 -0.3914
vn -0.0269 0.9993 0.0241
vn 0.8805 0.0018 0.4741
vn 0.9033 0.0139 0.4288
vn 0.7972 0.1962 0.5709
vn 0.9794 0.1968 -0.0458
vn 0.8232 0.0527 0.5653
vn 0.9553 -0.0766 0.2856
vn 0.9432 -0.0286 0.3311
vn 0.9753 -0.0932 -0.2002
vn 0.9487 0.0142 0.3157
vn 0.8366 0.0086 0.5478
vn 0.8305 -0.0213 0.5566
vn -0.6139 -0.0291 0.7889
vn -0.5889 -0.0232 0.8079
vn -0.6328 -0.0202 0.7741
vn -0.6105 -0.0481 0.7905
vn -0.4516 -0.0549 0.8905
vn -0.5698 -0.0490 0.8203
vn -0.5934 -0.0024 0.8049
vn -0.6027 -0.0086 0.7979
vn -0.4828 -0.0191 0.8755
vn -0.6357 -0.0266 0.7714
vn -0.5004 -0.0467 0.8646
vn -0.5458 -0.0349 0.8372
vn 0.2129 -0.0211 0.9768
vn 0.2810 -0.0394 0.9589
vn 0.3047 0.0079 0.9524
vn 0.2321 0.0206 0.9725
vn -0.0310 -0.0355 0.9989
vn 0.1217 0.0279 0.9922
vn 0.2000 -0.0531 0.9784
vn 0.1643 -0.0583 0.9847
vn 0.0735 -0.0166 0.9972
vn 0.2399 -0.0222 0.9705
vn 0.1666 -0.0272 0.9857
vn 0.1245 -0.0358 0.9916
vn 0.1593 -0.0275 0.9868
vn 0.2850 -0.0338 0.9579
vn 0.3363 0.0159 0.9416
vn -0.5810 -0.0452 0.8126
vn -0.6084 -0.0511 0.7920
vn -0.5497 -0.0360 0.8346
vn 0.8689 -0.0039 0.4949
vn 0.9206 0.0327 0.3892
vn 0.9044 0.0499 0.4238
vn 0.9298 0.0238 -0.3674
vn 0.9609 0.0092 -0.2766
vn 0.9685 0.0521 -0.2434
vn 0.4385 0.0277 -0.8983
vn 0.6440 0.0309 -0.7644
vn 0.6224 0.0249 -0.7823
vn -0.2634 0.0007 -0.9647
vn -0.2115 -0.0122 -0.9773
vn -0.2067 0.0258 -0.9781
vn -0.8678 -0.0268 -0.4963
vn -0.9344 0.0222 -0.3555
vn -0.9231 -0.0409 -0.3824
vn -0.9641 -0.0171 0.2648
vn -0.8885 -0.0401 0.4572
vn -0.9204 -0.0398 0.3889
vn 0.8813 -0.0181 0.4722
s 0
usemtl Material.001
f 176//1 50//1 4//1 77//1
f 175//2 54//2 6//2 81//2
f 174//3 57//3 8//3 85//3
f 173//4 60//4 10//4 89//4
f 172//5 63//5 12//5 93//5
f 171//6 66//6 14//6 97//6
f 4//7 50//7 2//7 72//7 16//7 69//7 14//7 66//7 12//7 63//7 10//7 60//7 8//7 57//7 6//7 54//7
f 170//8 72//8 2//8 51//8
f 169//9 69//9 16//9 101//9
f 1//10 49//10 3//10 53//10 5//10 56//10 7//10 59//10 9//10 62//10 11//10 65//10 13//10 68//10 15//10 71//10
f 168//11 105//11 48//11 70//11
f 167//12 106//12 47//12 104//12
f 166//13 107//13 46//13 103//13
f 165//14 108//14 45//14 102//14
f 164//15 109//15 17//15 73//15
f 163//16 110//16 18//16 74//16
f 162//17 111//17 19//17 75//17
f 161//18 112//18 20//18 76//18
f 160//19 113//19 44//19 67//19
f 159//20 114//20 43//20 100//20
f 158//21 115//21 42//21 99//21
f 157//22 116//22 41//22 98//22
f 156//23 117//23 40//23 64//23
f 155//24 118//24 39//24 96//24
f 154//25 119//25 38//25 95//25
f 153//26 120//26 37//26 94//26
f 152//27 121//27 36//27 61//27
f 151//28 122//28 35//28 92//28
f 150//29 123//29 34//29 91//29
f 149//30 124//30 33//30 90//30
f 148//31 125//31 32//31 58//31
f 147//32 126//32 31//32 88//32
f 146//33 127//33 30//33 87//33
f 145//34 128//34 29//34 86//34
f 144//35 129//35 28//35 55//35
f 143//36 130//36 27//36 84//36
f 142//37 131//37 26//37 83//37
f 141//38 132//38 25//38 82//38
f 140//39 133//39 24//39 52//39
f 139//40 134//40 23//40 80//40
f 138//41 135//41 22//41 79//41
f 137//42 136//42 21//42 78//42
f 135//43 137//43 78//43 22//43
f 19//44 76//44 137//44 135//44
f 76//45 20//45 136//45 137//45
f 134//46 138//46 79//46 23//46
f 18//47 75//47 138//47 134//47
f 75//48 19//48 135//48 138//48
f 133//49 139//49 80//49 24//49
f 17//50 74//50 139//50 133//50
f 74//51 18//51 134//51 139//51
f 49//52 140//52 52//52 3//52
f 1//53 73//53 140//53 49//53
f 73//54 17//54 133//54 140//54
f 131//55 141//55 82//55 26//55
f 22//56 78//56 141//56 131//56
f 78//57 21//57 132//57 141//57
f 130//58 142//58 83//58 27//58
f 23//59 79//59 142//59 130//59
f 79//60 22//60 131//60 142//60
f 129//61 143//61 84//61 28//61
f 24//62 80//62 143//62 129//62
f 80//63 23//63 130//63 143//63
f 53//64 144//64 55//64 5//64
f 3//65 52//65 144//65 53//65
f 52//66 24//66 129//66 144//66
f 127//67 145//67 86//67 30//67
f 26//67 82//67 145//67 127//67
f 82//68 25//68 128//68 145//68
f 126//69 146//69 87//69 31//69
f 27//70 83//70 146//70 126//70
f 83//71 26//71 127//71 146//71
f 125//72 147//72 88//72 32//72
f 28//73 84//73 147//73 125//73
f 84//74 27//74 126//74 147//74
f 56//75 148//75 58//75 7//75
f 5//76 55//76 148//76 56//76
f 55//77 28//77 125//77 148//77
f 123//78 149//78 90//78 34//78
f 30//79 86//79 149//79 123//79
f 86//80 29//80 124//80 149//80
f 122//81 150//81 91//81 35//81
f 31//82 87//82 150//82 122//82
f 87//83 30//83 123//83 150//83
f 121//84 151//84 92//84 36//84
f 32//85 88//85 151//85 121//85
f 88//86 31//86 122//86 151//86
f 59//87 152//87 61//87 9//87
f 7//88 58//88 152//88 59//88
f 58//89 32//89 121//89 152//89
f 119//90 153//90 94//90 38//90
f 34//91 90//91 153//91 119//91
f 90//92 33//92 120//92 153//92
f 118//93 154//93 95//93 39//93
f 35//94 91//94 154//94 118//94
f 91//95 34//95 119//95 154//95
f 117//96 155//96 96//96 40//96
f 36//97 92//97 155//97 117//97
f 92//98 35//98 118//98 155//98
f 62//99 156//99 64//99 11//99
f 9//100 61//100 156//100 62//100
f 61//101 36//101 117//101 156//101
f 157//102 98//102 177//102 180//102
f 38//103 94//103 157//103 115//103
f 94//104 37//104 116//104 157//104
f 114//105 158//105 99//105 43//105
f 39//106 95//106 158//106 114//106
f 95//107 38//107 115//107 158//107
f 113//108 159//108 100//108 44//108
f 40//109 96//109 159//109 113//109
f 96//110 39//110 114//110 159//110
f 65//111 160//111 67//111 13//111
f 11//112 64//112 160//112 65//112
f 64//113 40//113 113//113 160//113
f 111//114 161//114 76//114 19//114
f 46//115 102//115 161//115 111//115
f 102//116 45//116 112//116 161//116
f 110//117 162//117 75//117 18//117
f 47//118 103//118 162//118 110//118
f 103//119 46//119 111//119 162//119
f 109//120 163//120 74//120 17//120
f 48//121 104//121 163//121 109//121
f 104//122 47//122 110//122 163//122
f 71//123 164//123 73//123 1//123
f 15//124 70//124 164//124 71//124
f 70//125 48//125 109//125 164//125
f 107//126 165//126 102//126 46//126
f 42//127 98//127 165//127 107//127
f 98//128 41//128 108//128 165//128
f 106//129 166//129 103//129 47//129
f 43//130 99//130 166//130 106//130
f 99//131 42//131 107//131 166//131
f 105//132 167//132 104//132 48//132
f 44//133 100//133 167//133 105//133
f 100//134 43//134 106//134 167//134
f 68//135 168//135 70//135 15//135
f 13//136 67//136 168//136 68//136
f 67//137 44//137 105//137 168//137
f 108//138 169//138 101//138 45//138
f 41//139 97//139 169//139 108//139
f 97//140 14//140 69//140 169//140
f 112//141 170//141 51//141 20//141
f 45//142 101//142 170//142 112//142
f 101//143 16//143 72//143 170//143
f 116//144 171//144 97//144 41//144
f 37//145 93//145 171//145 116//145
f 93//146 12//146 66//146 171//146
f 120//147 172//147 93//147 37//147
f 33//148 89//148 172//148 120//148
f 89//149 10//149 63//149 172//149
f 124//150 173//150 89//150 33//150
f 29//151 85//151 173//151 124//151
f 85//152 8//152 60//152 173//152
f 128//153 174//153 85//153 29//153
f 25//154 81//154 174//154 128//154
f 81//155 6//155 57//155 174//155
f 132//156 175//156 81//156 25//156
f 21//157 77//157 175//157 132//157
f 77//158 4//158 54//158 175//158
f 136//159 176//159 77//159 21//159
f 20//160 51//160 176//160 136//160
f 51//161 2//161 50//161 176//161
f 179//162 180//162 177//162 178//162
f 98//102 42//102 178//102 177//102
f 42//102 115//102 179//102 178//102
f 115//102 157//102 180//102 179//102
